<svg xmlns="http://www.w3.org/2000/svg" viewBox="0 0 320 220" role="img" aria-labelledby="title desc">
  <title id="title">Game Boy</title>
  <desc id="desc">Stylized original Game Boy handheld.</desc>
  <defs>
    <linearGradient id="case" x1="0%" x2="0%" y1="0%" y2="100%">
      <stop offset="0%" stop-color="#e8dcc5"/>
      <stop offset="100%" stop-color="#cbbda1"/>
    </linearGradient>
    <linearGradient id="screen" x1="0%" x2="0%" y1="0%" y2="100%">
      <stop offset="0%" stop-color="#94a26d"/>
      <stop offset="100%" stop-color="#5c7141"/>
    </linearGradient>
  </defs>
  <g transform="translate(86 10)">
    <ellipse cx="74" cy="184" rx="62" ry="16" fill="#000000" fill-opacity=".12"/>
    <path d="M12 16c0-9 7-16 16-16h92c9 0 16 7 16 16v142c0 12-10 22-22 22H34c-12 0-22-10-22-22Z" fill="url(#case)" stroke="#1b1b1b" stroke-width="8"/>
    <rect x="24" y="20" width="100" height="82" rx="12" fill="#5f6376"/>
    <rect x="38" y="34" width="72" height="54" rx="6" fill="url(#screen)"/>
    <circle cx="40" cy="128" r="16" fill="#4f5260"/>
    <circle cx="66" cy="144" r="16" fill="#7d355f"/>
    <rect x="82" y="120" width="36" height="10" rx="5" fill="#6a6a6a" transform="rotate(22 100 125)"/>
    <rect x="80" y="136" width="36" height="10" rx="5" fill="#6a6a6a" transform="rotate(22 98 141)"/>
    <rect x="24" y="118" width="32" height="8" rx="4" fill="#2b2b2b"/>
    <rect x="36" y="106" width="8" height="32" rx="4" fill="#2b2b2b"/>
    <rect x="38" y="164" width="44" height="8" rx="4" fill="#7b7b7b" transform="rotate(-20 60 168)"/>
    <rect x="82" y="164" width="44" height="8" rx="4" fill="#7b7b7b" transform="rotate(-20 104 168)"/>
  </g>
</svg>
